
<svg width="139px" height="52px" viewBox="0 0 139 52" version="1.1" xmlns="http://www.w3.org/2000/svg" xmlns:xlink="http://www.w3.org/1999/xlink">
    <!-- Generator: Sketch 45 (43475) - http://www.bohemiancoding.com/sketch -->
    <desc>trvlrs logo</desc>
    <defs></defs>
    <g id="Page-1" stroke="none" stroke-width="1" fill="none" fill-rule="evenodd">
        <g id="Desktop-HD" transform="translate(-142.000000, -14.000000)" fill="#FFFFFF">
            <g id="Group" transform="translate(142.000000, 14.000000)">
                <path d="M25.9964386,0.970237161 L28,0.970237161 L28,0.970237161 C29.6568542,0.970237161 31,2.31338291 31,3.97023716 L31,47.9700726 C31,49.6269269 29.6568542,50.9700726 28,50.9700726 L25.9964386,50.9700726 C24.3395844,50.9700726 22.9964386,49.6269269 22.9964386,47.9700726 L22.9964386,3.97023716 C22.9964386,2.31338291 24.3395844,0.970237161 25.9964386,0.970237161 L25.9964386,0.970237161 Z M22,23 L4.88145897,23 C4.28706221,23 3.78183254,22.7326416 3.36575481,22.1979167 L0.22289767,18.1588542 C0.0742984802,17.967881 0,17.7482651 0,17.5 C0,17.2517349 0.0742984802,17.032119 0.22289767,16.8411458 L3.36575481,12.8020833 C3.78183254,12.2673584 4.28706221,12 4.88145897,12 L22,12 L22,23 Z M32,17 L32,6 L49.118541,6 C49.7129378,6 50.2181675,6.26735844 50.6342452,6.80208333 L53.7771023,10.8411458 C53.9257015,11.032119 54,11.2517349 54,11.5 C54,11.7482651 53.9257015,11.967881 53.7771023,12.1588542 L50.6342452,16.1979167 C50.2181675,16.7326416 49.7129378,17 49.118541,17 L32,17 Z" id="Combined-Shape"></path>
                <path d="M53.925,26.625 C54.5083362,27.1416692 54.8,27.9166615 54.8,28.95 C54.8,30.0500055 54.533336,30.866664 54,31.4 C53.466664,31.933336 52.5166735,32.266666 51.15,32.4 L49.65,32.55 C47.8166575,32.750001 46.4916707,33.349995 45.675,34.35 C44.8583292,35.350005 44.45,36.6333255 44.45,38.2 L44.45,47.75 C44.45,48.9166725 44.0916702,49.799997 43.375,50.4 C42.6583297,51.000003 41.766672,51.3 40.7,51.3 C39.5999945,51.3 38.6916702,51.000003 37.975,50.4 C37.2583297,49.799997 36.9,48.9166725 36.9,47.75 L36.9,29.4 C36.9,28.2999945 37.266663,27.450003 38,26.85 C38.733337,26.249997 39.6166615,25.95 40.65,25.95 C41.650005,25.95 42.48333,26.2416638 43.15,26.825 C43.81667,27.4083362 44.15,28.2166615 44.15,29.25 L44.15,30.6 C44.750003,29.1666595 45.6583272,28.0666705 46.875,27.3 C48.0916727,26.5333295 49.4166595,26.1000005 50.85,26 L51.55,25.95 C52.550005,25.883333 53.3416637,26.1083308 53.925,26.625 Z M76.525,26.525 C77.0750027,26.1749982 77.6666635,26 78.3,26 C79.233338,26 80.066663,26.3083302 80.8,26.925 C81.533337,27.5416697 81.9,28.283329 81.9,29.15 C81.9,29.6500025 81.7833345,30.133331 81.55,30.6 L72.55,49.05 C72.216665,49.783337 71.71667,50.3416647 71.05,50.725 C70.38333,51.1083353 69.6666705,51.3 68.9,51.3 C68.1333295,51.3 67.41667,51.1083353 66.75,50.725 C66.08333,50.3416647 65.5666685,49.783337 65.2,49.05 L56.2,30.6 C55.999999,30.133331 55.9,29.6833355 55.9,29.25 C55.9,28.3499955 56.2916627,27.5833365 57.075,26.95 C57.8583372,26.3166635 58.7333285,26 59.7,26 C60.4000035,26 61.0333305,26.1749982 61.6,26.525 C62.1666695,26.8750017 62.616665,27.3999965 62.95,28.1 L69.1,41.55 L75.2,28.1 C75.533335,27.3999965 75.9749972,26.8750017 76.525,26.525 Z M86.225,50.4 C85.5083298,49.799997 85.15,48.9166725 85.15,47.75 L85.15,19.05 C85.15,17.8833275 85.5083298,17.000003 86.225,16.4 C86.9416702,15.799997 87.8499945,15.5 88.95,15.5 C90.016672,15.5 90.9083297,15.799997 91.625,16.4 C92.3416702,17.000003 92.7,17.8833275 92.7,19.05 L92.7,47.75 C92.7,48.9166725 92.3416702,49.799997 91.625,50.4 C90.9083297,51.000003 90.016672,51.3 88.95,51.3 C87.8499945,51.3 86.9416702,51.000003 86.225,50.4 Z M115.525,26.625 C116.108336,27.1416692 116.4,27.9166615 116.4,28.95 C116.4,30.0500055 116.133336,30.866664 115.6,31.4 C115.066664,31.933336 114.116674,32.266666 112.75,32.4 L111.25,32.55 C109.416657,32.750001 108.091671,33.349995 107.275,34.35 C106.458329,35.350005 106.05,36.6333255 106.05,38.2 L106.05,47.75 C106.05,48.9166725 105.69167,49.799997 104.975,50.4 C104.25833,51.000003 103.366672,51.3 102.3,51.3 C101.199994,51.3 100.29167,51.000003 99.575,50.4 C98.8583297,49.799997 98.5,48.9166725 98.5,47.75 L98.5,29.4 C98.5,28.2999945 98.866663,27.450003 99.6,26.85 C100.333337,26.249997 101.216661,25.95 102.25,25.95 C103.250005,25.95 104.08333,26.2416638 104.75,26.825 C105.41667,27.4083362 105.75,28.2166615 105.75,29.25 L105.75,30.6 C106.350003,29.1666595 107.258327,28.0666705 108.475,27.3 C109.691673,26.5333295 111.016659,26.1000005 112.45,26 L113.15,25.95 C114.150005,25.883333 114.941664,26.1083308 115.525,26.625 Z M122.3,50.9 C120.799993,50.566665 119.483339,50.033337 118.35,49.3 C117.849998,48.9999985 117.466668,48.6000025 117.2,48.1 C116.933332,47.5999975 116.8,47.0333365 116.8,46.4 C116.8,45.6333295 117.016665,44.9916693 117.45,44.475 C117.883336,43.9583308 118.416663,43.7 119.05,43.7 C119.483335,43.7 119.916664,43.7749993 120.35,43.925 C120.783335,44.0750008 121.233331,44.249999 121.7,44.45 C122.633338,44.8833355 123.549995,45.2249987 124.45,45.475 C125.350004,45.7250013 126.46666,45.85 127.8,45.85 C128.966672,45.85 129.874997,45.6666685 130.525,45.3 C131.175003,44.9333315 131.5,44.4333365 131.5,43.8 C131.5,43.333331 131.358335,42.9583348 131.075,42.675 C130.791665,42.3916653 130.266671,42.1333345 129.5,41.9 C128.733329,41.6666655 127.516675,41.383335 125.85,41.05 C122.883318,40.4833305 120.750007,39.633339 119.45,38.5 C118.149993,37.366661 117.5,35.7833435 117.5,33.75 C117.5,32.2499925 117.958329,30.900006 118.875,29.7 C119.791671,28.499994 121.049992,27.5583367 122.65,26.875 C124.250008,26.1916632 126.04999,25.85 128.05,25.85 C129.48334,25.85 130.883326,26.0333315 132.25,26.4 C133.616673,26.7666685 134.833328,27.28333 135.9,27.95 C136.933338,28.5833365 137.45,29.5166605 137.45,30.75 C137.45,31.550004 137.233335,32.216664 136.8,32.75 C136.366664,33.283336 135.833336,33.55 135.2,33.55 C134.433329,33.55 133.516672,33.250003 132.45,32.65 C131.616662,32.2166645 130.858337,31.8916677 130.175,31.675 C129.491663,31.4583322 128.683338,31.35 127.75,31.35 C126.716661,31.35 125.900003,31.5416647 125.3,31.925 C124.699997,32.3083352 124.4,32.83333 124.4,33.5 C124.4,34.2000035 124.749996,34.7333315 125.45,35.1 C126.150003,35.4666685 127.49999,35.8333315 129.5,36.2 C131.733344,36.6333355 133.483327,37.1583302 134.75,37.775 C136.016673,38.3916697 136.93333,39.166662 137.5,40.1 C138.066669,41.033338 138.35,42.2166595 138.35,43.65 C138.35,46.0166785 137.37501,47.899993 135.425,49.3 C133.47499,50.700007 130.866683,51.4 127.6,51.4 C125.566656,51.4 123.800007,51.233335 122.3,50.9 Z" id="rvlrs"></path>
            </g>
        </g>
    </g>
</svg>